<svg xmlns="http://www.w3.org/2000/svg" xmlns:xlink="http://www.w3.org/1999/xlink" width="400" zoomAndPan="magnify" viewBox="0 0 300 262.499992" height="350" preserveAspectRatio="xMidYMid meet" version="1.0"><defs><clipPath id="ee2514f4e1"><path d="M 28.730469 197.378906 L 108.828125 197.378906 L 108.828125 261.753906 L 28.730469 261.753906 Z M 28.730469 197.378906 " clip-rule="nonzero"/></clipPath><clipPath id="f74d7755f1"><path d="M 1.464844 30.839844 L 80.511719 30.839844 L 80.511719 64.722656 L 1.464844 64.722656 Z M 1.464844 30.839844 " clip-rule="nonzero"/></clipPath><clipPath id="cd5a0052c7"><path d="M 0.730469 16.03125 L 79.527344 16.03125 L 79.527344 49.882812 L 0.730469 49.882812 Z M 0.730469 16.03125 " clip-rule="nonzero"/></clipPath><clipPath id="3b122ad2ea"><path d="M 0.730469 0.410156 L 79.527344 0.410156 L 79.527344 34.257812 L 0.730469 34.257812 Z M 0.730469 0.410156 " clip-rule="nonzero"/></clipPath><clipPath id="a1a14849b7"><path d="M 26 0.378906 L 44 0.378906 L 44 4 L 26 4 Z M 26 0.378906 " clip-rule="nonzero"/></clipPath><clipPath id="0152e17eb4"><path d="M 26 0.378906 L 80 0.378906 L 80 13 L 26 13 Z M 26 0.378906 " clip-rule="nonzero"/></clipPath><clipPath id="9ed9cdb0f9"><rect x="0" width="81" y="0" height="65"/></clipPath></defs><path fill="#d35b38" d="M 136.722656 77.855469 C 136.722656 77.855469 124.507812 59.59375 132.453125 35.488281 C 140.402344 11.386719 165.570312 0.09375 190.761719 8.726562 C 215.949219 17.355469 220.019531 61.695312 210.222656 74.519531 C 209.601562 75.550781 217.316406 87.859375 218.191406 109.125 C 219.066406 130.390625 197.566406 114.488281 197.566406 114.488281 C 197.566406 114.488281 192.007812 99.839844 205.035156 78.183594 C 205.035156 78.183594 202.382812 78.347656 196.410156 76.761719 C 190.433594 75.179688 151.140625 76.898438 151.140625 76.898438 C 151.140625 76.898438 147.097656 81.300781 144.621094 81.722656 C 142.140625 82.144531 144.621094 84.320312 144.621094 84.320312 C 144.621094 84.320312 148.125 92.261719 148.929688 97.332031 C 149.734375 102.40625 130.472656 113.675781 130.472656 113.675781 C 130.472656 113.675781 125.449219 88.738281 136.722656 77.855469 Z M 136.722656 77.855469 " fill-opacity="1" fill-rule="nonzero"/><path fill="#2b3244" d="M 224.597656 148.015625 C 221.484375 152.167969 215.4375 152.242188 210.253906 152.492188 C 193.789062 153.308594 178.222656 159.792969 162.269531 163.917969 C 158.558594 164.875 154.617188 165.703125 150.941406 164.632812 C 147.925781 163.75 145.417969 161.679688 143.097656 159.554688 C 133.355469 150.628906 125.246094 140.125 119.433594 128.257812 C 119.433594 128.257812 126.382812 96.832031 158.777344 90.128906 C 191.167969 83.421875 189.957031 91.933594 189.957031 91.933594 C 189.957031 91.933594 221.839844 99.101562 226.9375 128.257812 C 222.742188 133.789062 228.769531 142.464844 224.597656 148.015625 Z M 224.597656 148.015625 " fill-opacity="1" fill-rule="nonzero"/><path fill="#fff6e1" d="M 109.753906 127.4375 C 110.121094 127.019531 118.546875 124.183594 119.441406 124.011719 C 120.335938 123.84375 157.355469 123.921875 170.25 134.25 C 170.25 134.25 183.632812 123.351562 218.96875 123.265625 C 219.488281 123.273438 232.335938 129.179688 232.664062 129.71875 C 232.664062 129.71875 200.855469 166.164062 164.1875 157.722656 C 127.515625 149.28125 109.753906 127.4375 109.753906 127.4375 Z M 105.035156 244.664062 C 111.726562 261.90625 135.800781 249.996094 141.082031 246.28125 C 146.164062 243.371094 147.152344 243.375 159.699219 242.40625 C 155.90625 234.289062 153.535156 222.800781 152.394531 216.195312 C 146.015625 219.558594 140.589844 221.542969 135.664062 221.773438 C 125.492188 222.25 98.605469 228.109375 105.035156 244.664062 Z M 105.035156 244.664062 " fill-opacity="1" fill-rule="nonzero"/><path fill="#f2c1b8" d="M 162.78125 143.378906 C 162.738281 142.871094 169.339844 134.9375 169.882812 135.167969 C 170.425781 135.402344 178.015625 143.828125 177.984375 144.324219 C 177.957031 144.828125 162.925781 145.203125 162.78125 143.378906 Z M 162.78125 143.378906 " fill-opacity="1" fill-rule="nonzero"/><path fill="#d35b38" d="M 161.890625 142.871094 L 178.222656 143.410156 C 178.222656 143.410156 232.550781 128.269531 232.664062 129.726562 C 232.78125 131.179688 224.65625 182.171875 222.925781 183.335938 C 173.980469 241.558594 116.851562 184.085938 116.851562 184.085938 C 116.851562 184.085938 106.625 128.101562 106.925781 127.269531 C 107.617188 125.351562 161.890625 142.871094 161.890625 142.871094 Z M 161.890625 142.871094 " fill-opacity="1" fill-rule="nonzero"/><path fill="#dc7b78" d="M 190.839844 193.390625 C 212.691406 183.355469 243.464844 176.875 242.839844 206.957031 C 242.625 217.195312 228.429688 229.046875 203.050781 236.058594 C 197.390625 229.757812 185.230469 210.535156 190.839844 193.390625 Z M 146.363281 193.390625 C 124.515625 183.355469 93.746094 176.875 94.363281 206.957031 C 94.578125 217.195312 108.773438 229.046875 134.152344 236.058594 C 139.8125 229.757812 151.976562 210.535156 146.363281 193.390625 Z M 146.363281 193.390625 " fill-opacity="1" fill-rule="nonzero"/><path fill="#f2c1b8" d="M 161.546875 97.449219 C 159.003906 95.359375 188.484375 87.160156 188.484375 87.160156 L 189.957031 91.933594 C 189.957031 91.933594 175.28125 105.421875 172.386719 104.964844 C 170.636719 104.695312 165.417969 100.628906 161.546875 97.449219 Z M 179.074219 240.683594 C 187.910156 239.625 195.921875 238.035156 203.054688 236.066406 C 200.417969 228.253906 192.5 204.273438 190.839844 193.390625 C 185.28125 195.941406 180.300781 198.726562 176.558594 201.195312 C 173.769531 203.039062 171.125 204.78125 168.601562 206.414062 C 166.078125 204.773438 163.4375 203.039062 160.644531 201.195312 C 156.902344 198.726562 151.921875 195.945312 146.363281 193.390625 C 144.703125 204.273438 136.785156 228.253906 134.148438 236.066406 C 141.28125 238.035156 149.296875 239.625 158.128906 240.683594 C 158.632812 241.289062 159.148438 241.871094 159.691406 242.414062 C 162.167969 242.222656 165.101562 241.996094 168.597656 241.699219 C 172.09375 241.996094 175.03125 242.222656 177.503906 242.414062 C 178.054688 241.867188 178.570312 241.285156 179.074219 240.683594 Z M 179.074219 240.683594 " fill-opacity="1" fill-rule="nonzero"/><path fill="#fff6e1" d="M 232.171875 244.664062 C 225.480469 261.90625 201.40625 249.996094 196.125 246.28125 C 191.042969 243.371094 190.054688 243.375 177.507812 242.40625 C 181.304688 234.289062 183.671875 222.800781 184.816406 216.195312 C 191.191406 219.558594 196.617188 221.542969 201.542969 221.773438 C 211.71875 222.25 238.601562 228.109375 232.171875 244.664062 Z M 232.171875 244.664062 " fill-opacity="1" fill-rule="nonzero"/><path fill="#dc7b78" d="M 188.484375 87.160156 C 184.285156 90.84375 171.59375 97.808594 161.546875 97.449219 C 159.003906 95.359375 157.046875 93.648438 157.046875 93.648438 C 157.046875 93.648438 159.011719 85.355469 159.144531 85.089844 L 187.054688 83.539062 C 187.179688 83.59375 187.296875 83.640625 187.417969 83.695312 Z M 188.484375 87.160156 " fill-opacity="1" fill-rule="nonzero"/><path fill="#f2c1b8" d="M 172.539062 90.128906 C 148.40625 90.128906 140.710938 63.636719 140.710938 63.636719 C 130.589844 64.382812 128.199219 50.421875 137.945312 49.8125 C 137.945312 49.8125 138.660156 50.25 139.691406 50.21875 C 139.703125 50.21875 139.5625 49.765625 139.578125 49.765625 C 141.007812 49.726562 143.308594 49.667969 146.214844 49.59375 C 146.660156 47.480469 148.890625 37.058594 149.558594 36.957031 C 150.222656 36.859375 148.042969 47.355469 147.574219 49.5625 C 152.144531 49.449219 157.957031 49.316406 164.140625 49.191406 C 164.214844 44.644531 165.34375 31.515625 165.839844 31.496094 C 166.347656 31.472656 165.808594 44.921875 165.625 49.160156 C 171.015625 49.050781 176.632812 48.957031 181.925781 48.886719 C 181.746094 45.800781 181.148438 35.050781 181.359375 34.921875 C 181.578125 34.789062 183.191406 46.417969 183.527344 48.867188 C 187.058594 48.828125 190.417969 48.804688 193.421875 48.800781 C 192.644531 43.859375 190.679688 31.058594 191.328125 30.808594 C 191.984375 30.550781 193.855469 44.054688 194.492188 48.800781 C 199.417969 48.800781 203.292969 48.867188 205.28125 49.03125 C 205.144531 49.582031 205.957031 49.097656 206.1875 49.132812 C 212.691406 50.167969 213.738281 63.132812 203.085938 63.011719 C 202.910156 66.664062 195.394531 90.128906 172.539062 90.128906 Z M 203.382812 127.121094 C 184.199219 129.460938 172.386719 137.195312 172.386719 137.195312 C 172.355469 138.011719 173.667969 136.839844 179.535156 134.257812 C 185.402344 131.671875 196.375 128.429688 203.6875 127.878906 C 204.65625 127.671875 204.230469 127.015625 203.382812 127.121094 Z M 217.148438 128.265625 C 201.519531 130.160156 189.132812 134.773438 189.132812 134.773438 C 188.445312 135.199219 189.230469 135.277344 189.960938 135.03125 C 190.691406 134.78125 205.300781 130.085938 217.488281 128.652344 C 218.109375 128.484375 217.554688 128.214844 217.148438 128.265625 Z M 132.992188 126.519531 C 129.445312 125.949219 116.289062 124.992188 116.289062 124.992188 L 115.160156 125.371094 C 115.152344 125.378906 134.671875 127.214844 132.992188 126.519531 Z M 153.703125 133.160156 C 159.34375 134.425781 166.730469 139.070312 166.730469 139.070312 L 167.160156 138.371094 C 163.957031 135.5625 155.304688 132.539062 154.214844 132.507812 C 153.125 132.480469 153.003906 132.996094 153.703125 133.160156 Z M 150.722656 134.8125 C 144.683594 132.269531 130.144531 130.132812 129.355469 130.132812 C 128.566406 130.132812 128.496094 130.378906 128.902344 130.488281 C 128.902344 130.488281 141.570312 132.296875 150.441406 135.164062 C 150.9375 135.324219 151.242188 135.058594 150.722656 134.8125 Z M 117.769531 171.296875 C 117.769531 171.296875 119.46875 170.933594 119.300781 169.589844 C 119.136719 168.246094 117.160156 167.351562 117.160156 167.351562 C 117.160156 167.351562 119.238281 167.089844 119.269531 165.695312 C 119.304688 164.300781 117.394531 162.914062 117.394531 162.914062 C 118.566406 162.578125 119.332031 161.574219 118.148438 160.246094 C 116.964844 158.914062 111.296875 156.875 108.804688 157.527344 C 106.3125 158.175781 106.824219 161.144531 108.949219 161.863281 C 106.652344 162.582031 107.648438 165.199219 109.738281 166.144531 C 107.882812 166.660156 108.734375 169.320312 111.496094 170.347656 C 109.042969 171.207031 110.472656 174.226562 114.988281 174.839844 C 117.050781 175.15625 119.523438 174.390625 119.441406 173.367188 C 119.351562 172.335938 117.769531 171.296875 117.769531 171.296875 Z M 232.511719 161.851562 C 234.636719 161.132812 235.144531 158.167969 232.65625 157.515625 C 230.160156 156.867188 224.5 158.90625 223.3125 160.234375 C 222.125 161.566406 222.894531 162.566406 224.066406 162.90625 C 224.066406 162.90625 222.152344 164.296875 222.1875 165.683594 C 222.222656 167.078125 224.300781 167.34375 224.300781 167.34375 C 224.300781 167.34375 222.324219 168.242188 222.160156 169.582031 C 221.996094 170.925781 223.6875 171.289062 223.6875 171.289062 C 223.6875 171.289062 222.109375 172.324219 222.023438 173.347656 C 221.941406 174.371094 224.414062 175.136719 226.476562 174.820312 C 230.992188 174.207031 232.421875 171.1875 229.96875 170.328125 C 232.730469 169.300781 233.585938 166.640625 231.726562 166.125 C 233.808594 165.1875 234.804688 162.574219 232.511719 161.851562 Z M 107.105469 233.523438 C 106.296875 233.242188 106 233.960938 106.675781 234.21875 C 106.941406 234.324219 118.269531 239.175781 112.402344 251.175781 C 111.890625 252.269531 113.203125 252.144531 114.21875 248.902344 C 115.238281 245.664062 116.445312 237.796875 107.105469 233.523438 Z M 188.683594 221.847656 C 188.84375 220.949219 188.9375 220.277344 188.972656 219.9375 C 189.136719 218.328125 188.144531 218.175781 188.074219 219.175781 C 187.40625 228.546875 181.5625 242.015625 181.5625 242.015625 C 181.363281 242.621094 182.132812 242.839844 183.976562 238.609375 C 185.101562 239.019531 192.613281 241.558594 193.378906 241.261719 C 194.105469 240.976562 186.191406 238.414062 184.3125 237.8125 C 184.476562 237.417969 184.640625 237.003906 184.820312 236.546875 C 185.222656 235.5 185.605469 234.386719 185.957031 233.257812 C 187.496094 233.71875 194.714844 235.863281 194.703125 235.570312 C 194.695312 235.289062 188.023438 233.203125 186.152344 232.625 C 187.195312 229.15625 187.988281 225.574219 188.464844 223.058594 C 189.992188 223.261719 197.203125 225.453125 197.09375 225.039062 C 196.980469 224.621094 190 222.285156 188.683594 221.847656 Z M 188.832031 226.859375 C 188.820312 227.589844 197.09375 229.378906 197.09375 229.058594 C 197.09375 228.734375 188.84375 226.125 188.832031 226.859375 Z M 229.976562 234.035156 C 220.847656 236.492188 222.234375 248.921875 225.929688 251.226562 C 226.714844 251.597656 225.667969 250.472656 225.222656 249.726562 C 224.78125 248.984375 222.398438 242.035156 225.839844 237.683594 C 228.273438 234.660156 229.886719 234.628906 230.558594 234.488281 C 231.230469 234.34375 230.980469 233.707031 229.976562 234.035156 Z M 229.976562 234.035156 " fill-opacity="1" fill-rule="nonzero"/><path fill="#fff6e1" d="M 206.183594 49.132812 L 205.273438 49.03125 L 193.960938 55.4375 C 192.816406 52.5625 190.339844 50.28125 186.351562 50.003906 C 179.957031 49.5625 176.296875 53.742188 175.683594 58.242188 C 173.964844 58.023438 170.101562 57.75 166.09375 58.976562 C 165.816406 54.207031 162.570312 49.535156 155.832031 50 C 151.820312 50.277344 149.339844 52.574219 148.207031 55.472656 L 139.546875 49.757812 L 137.9375 49.816406 L 147.886719 56.425781 C 147.382812 58.234375 147.351562 60.191406 147.769531 62.015625 C 148.957031 67.1875 153.34375 69.082031 157.609375 68.871094 C 165.230469 67.984375 166.089844 62.039062 166.113281 59.683594 C 167.25 59.457031 171.675781 58.679688 175.59375 59.378906 C 175.582031 61.488281 176.605469 67.945312 184.566406 68.871094 C 188.832031 69.082031 193.21875 67.1875 194.40625 62.015625 C 194.789062 60.34375 194.792969 58.550781 194.402344 56.867188 C 194.371094 56.71875 206.183594 49.132812 206.183594 49.132812 Z M 155.144531 67.984375 C 146.15625 66.179688 147.078125 55.886719 151.011719 52.773438 C 154.945312 49.664062 161.988281 49.699219 165.015625 56.585938 C 167.011719 61.4375 163.597656 69.085938 155.144531 67.984375 Z M 187.253906 67.933594 C 178.804688 69.035156 175.171875 61.433594 177.171875 56.585938 C 180.195312 49.699219 186.910156 49.71875 190.84375 52.824219 C 194.773438 55.933594 196.246094 66.132812 187.253906 67.933594 Z M 220.328125 144.195312 C 220.488281 144.390625 219.402344 161.152344 219.402344 161.152344 C 219.402344 161.152344 188.316406 168.640625 187.5625 169.589844 C 187.074219 170.207031 187.742188 152.480469 188.316406 152.230469 C 190.414062 151.335938 219.195312 142.839844 220.328125 144.195312 Z M 220.328125 144.195312 " fill-opacity="1" fill-rule="nonzero"/><path fill="#2b3244" d="M 211.085938 103.824219 C 211.085938 103.824219 209.375 90.074219 209.523438 89.195312 C 209.667969 88.3125 212.800781 103.214844 211.085938 103.824219 Z M 141.722656 87.808594 C 142.339844 86.347656 141.15625 85.273438 140.710938 87.808594 C 140.605469 88.386719 139.765625 95.019531 141.722656 100.335938 C 142.828125 101.621094 139.90625 93.21875 141.722656 87.808594 Z M 180.085938 60.140625 C 179.542969 59.914062 179.703125 60.988281 181.367188 61.484375 C 181.378906 62.667969 181.523438 65.847656 183.4375 66.097656 C 185.464844 66.367188 185.773438 62.492188 185.816406 61.398438 C 187.269531 60.976562 187.699219 60.277344 187.40625 60.140625 C 183.546875 62.28125 180.085938 60.140625 180.085938 60.140625 Z M 180.511719 53.097656 C 180.246094 53.582031 180.683594 54.410156 181.21875 54.402344 C 181.691406 54.390625 186.425781 51.921875 189.679688 53.914062 C 190.113281 54.152344 190.449219 53.800781 190.09375 53.433594 C 186.902344 50.527344 181.34375 51.988281 180.511719 53.097656 Z M 162.097656 60.140625 C 162.097656 60.140625 158.636719 62.289062 154.777344 60.140625 C 154.484375 60.277344 154.921875 60.976562 156.367188 61.398438 C 156.410156 62.492188 156.71875 66.367188 158.746094 66.097656 C 160.664062 65.847656 160.808594 62.675781 160.816406 61.484375 C 162.480469 60.988281 162.640625 59.914062 162.097656 60.140625 Z M 160.96875 54.40625 C 161.503906 54.417969 161.941406 53.589844 161.671875 53.101562 C 160.84375 51.988281 155.285156 50.53125 152.089844 53.4375 C 151.738281 53.804688 152.074219 54.160156 152.507812 53.921875 C 155.761719 51.925781 160.496094 54.398438 160.96875 54.40625 Z M 135.410156 54.40625 C 136.15625 54.640625 138.8125 54.640625 139.539062 59.90625 C 139.683594 60.675781 140.472656 60.546875 140.488281 59.433594 C 140.496094 58.324219 139.421875 54.695312 136.027344 53.671875 C 135.125 53.433594 134.117188 53.652344 135.410156 54.40625 Z M 205.527344 58.640625 C 205.617188 58.132812 205.8125 55.171875 208.449219 55.574219 C 209.40625 55.542969 209.121094 54.519531 208.160156 54.40625 C 204.847656 54.421875 204.558594 58.609375 204.558594 58.640625 C 204.609375 59.90625 205.4375 59.144531 205.527344 58.640625 Z M 168.710938 68.640625 C 168.710938 68.640625 171.339844 65.601562 175.269531 68.21875 C 175.671875 68.21875 175.847656 67.925781 175.605469 67.566406 C 175.332031 67.171875 171.109375 64.878906 168.257812 68.09375 C 167.808594 68.917969 168.492188 68.859375 168.710938 68.640625 Z M 177.59375 77.855469 C 171.367188 81.566406 166.765625 77.628906 166.925781 77.601562 C 166.425781 77.164062 166.210938 77.769531 166.921875 78.429688 C 167.632812 79.089844 171.789062 82.394531 177.859375 78.339844 C 178.242188 77.984375 177.964844 77.640625 177.59375 77.855469 Z M 136.722656 77.855469 C 136.308594 78.792969 136.46875 79.785156 136.984375 80.714844 C 135.148438 83.914062 133.714844 90.871094 134.367188 90.898438 C 135.058594 90.921875 135.570312 87.0625 137.710938 81.734375 C 139.476562 83.769531 142.761719 85.234375 144.769531 84.652344 C 144.769531 84.652344 147.660156 83.742188 147.484375 80.226562 C 141.410156 82.023438 136.722656 77.855469 136.722656 77.855469 Z M 210.222656 74.515625 C 206.863281 77.953125 201.667969 77.890625 201.667969 77.890625 C 201.515625 79.027344 202.234375 81.859375 205.929688 80.996094 C 205.46875 83.214844 204.046875 90.203125 204.355469 90.78125 C 204.667969 91.375 206.644531 83.097656 207.238281 80.578125 C 211.816406 78.75 210.222656 74.515625 210.222656 74.515625 Z M 161.890625 142.871094 C 161.890625 142.871094 164.085938 200.742188 164.871094 201.550781 C 165.65625 202.359375 163.382812 142.871094 163.382812 142.871094 Z M 175.566406 194.714844 C 176.355469 194.527344 178.222656 143.410156 178.222656 143.410156 L 177.214844 143.378906 C 177.214844 143.378906 174.777344 194.90625 175.566406 194.714844 Z M 117.875 163.3125 C 117.597656 163.058594 117.386719 162.910156 117.386719 162.910156 C 117.386719 162.910156 113.863281 163.574219 108.945312 161.851562 C 108.824219 161.886719 108.726562 161.933594 108.621094 161.980469 C 111.824219 163.558594 116.113281 163.789062 117.875 163.3125 Z M 111.492188 170.339844 C 111.203125 170.4375 110.976562 170.574219 110.792969 170.726562 C 113.445312 171.449219 116.738281 171.628906 118.261719 171.667969 C 117.988281 171.441406 117.769531 171.296875 117.769531 171.296875 C 117.769531 171.296875 113.503906 171.0625 111.492188 170.339844 Z M 117.160156 167.347656 C 117.160156 167.347656 111.941406 166.820312 109.738281 166.136719 C 109.558594 166.1875 109.410156 166.261719 109.28125 166.347656 C 112.167969 167.484375 116.167969 167.730469 117.910156 167.777344 C 117.496094 167.503906 117.160156 167.347656 117.160156 167.347656 Z M 232.828125 161.980469 C 232.730469 161.9375 232.625 161.894531 232.507812 161.851562 C 227.589844 163.570312 224.0625 162.910156 224.0625 162.910156 C 224.0625 162.910156 223.851562 163.0625 223.574219 163.3125 C 225.1875 163.695312 229.582031 163.59375 232.828125 161.980469 Z M 223.683594 171.296875 C 223.683594 171.296875 223.46875 171.441406 223.191406 171.667969 C 224.710938 171.628906 228.011719 171.449219 230.664062 170.726562 C 230.480469 170.574219 230.25 170.445312 229.960938 170.339844 C 227.945312 171.0625 223.683594 171.296875 223.683594 171.296875 Z M 224.296875 167.347656 C 224.296875 167.347656 223.957031 167.5 223.546875 167.777344 C 225.289062 167.730469 229.289062 167.484375 232.171875 166.347656 C 232.042969 166.265625 231.894531 166.1875 231.714844 166.136719 C 229.515625 166.820312 224.296875 167.347656 224.296875 167.347656 Z M 224.296875 167.347656 " fill-opacity="1" fill-rule="nonzero"/><g clip-path="url(#ee2514f4e1)"><g transform="matrix(1, 0, 0, 1, 28, 197)"><g clip-path="url(#9ed9cdb0f9)"><g clip-path="url(#f74d7755f1)"><path fill="#5d85bd" d="M 80.28125 41.347656 L 44.9375 30.992188 L 4.382812 38.339844 C 4.382812 38.339844 -1.003906 44.351562 2.976562 51.949219 C 12.230469 55.457031 35.851562 64.722656 35.851562 64.722656 L 80.28125 56.207031 C 80.28125 56.207031 81.289062 55.203125 79.101562 54.703125 C 79.101562 51.78125 79.101562 42.679688 79.101562 42.679688 C 79.101562 42.679688 80.617188 42.347656 80.28125 41.347656 " fill-opacity="1" fill-rule="nonzero"/></g><path fill="#3f5983" d="M 34.246094 62.777344 C 30.117188 55.589844 34.425781 49.46875 34.425781 49.46875 C 34.425781 49.46875 27.6875 47.136719 24.257812 45.847656 L 23.554688 45.714844 C 19.894531 52.824219 22.667969 58.273438 22.667969 58.273438 L 34.246094 62.777344 " fill-opacity="1" fill-rule="nonzero"/><path fill="#f2f2f2" d="M 79.394531 42.679688 L 79.394531 54.703125 L 36.203125 62.71875 C 36.203125 62.71875 31.796875 57.875 36.203125 49.695312 C 54.496094 46.1875 79.394531 42.679688 79.394531 42.679688 " fill-opacity="1" fill-rule="nonzero"/><path fill="#dad9d7" d="M 36.203125 62.71875 L 79.394531 54.703125 L 79.394531 42.679688 C 79.394531 42.679688 66.84375 44.449219 53.015625 46.730469 C 48.386719 48.539062 45.074219 49.839844 45.074219 49.839844 L 40.3125 48.925781 C 38.914062 49.179688 37.539062 49.4375 36.203125 49.695312 C 34.730469 52.421875 34.242188 54.78125 34.246094 56.710938 C 34.246094 60.566406 36.203125 62.71875 36.203125 62.71875 " fill-opacity="1" fill-rule="nonzero"/><g clip-path="url(#cd5a0052c7)"><path fill="#ecb348" d="M 0.648438 27.003906 L 35.988281 16.105469 L 76.542969 23.453125 C 76.542969 23.453125 81.929688 29.464844 77.949219 37.0625 C 68.695312 40.570312 45.074219 49.839844 45.074219 49.839844 L 0.648438 41.324219 C 0.648438 41.324219 -0.363281 40.320312 1.824219 39.820312 C 1.824219 36.898438 1.824219 28.191406 1.824219 28.191406 C 1.824219 28.191406 0.308594 28.007812 0.648438 27.003906 " fill-opacity="1" fill-rule="nonzero"/></g><path fill="#f2f2f2" d="M 1.640625 39.820312 L 45.214844 48.421875 L 76.699219 36.210938 C 76.699219 36.210938 79.625 30.828125 75.726562 24.902344 C 69.511719 27.324219 44.664062 35.425781 44.664062 35.425781 L 1.640625 28.160156 L 1.640625 39.820312 " fill-opacity="1" fill-rule="nonzero"/><path fill="#dad9d7" d="M 45.214844 48.421875 L 76.699219 36.210938 C 76.699219 36.210938 77.753906 34.273438 77.753906 31.441406 C 77.753906 29.886719 77.4375 28.066406 76.453125 26.148438 L 67.238281 27.914062 C 57.691406 31.175781 44.664062 35.425781 44.664062 35.425781 L 45.214844 48.421875 " fill-opacity="1" fill-rule="nonzero"/><g clip-path="url(#3b122ad2ea)"><path fill="#47ad96" d="M 79.183594 10.761719 L 43.84375 0.410156 L 3.285156 7.757812 C 3.285156 7.757812 -2.101562 13.769531 1.878906 21.367188 C 11.136719 24.875 34.753906 34.140625 34.753906 34.140625 L 79.183594 25.625 C 79.183594 25.625 80.191406 24.621094 78.003906 24.121094 C 78.003906 21.199219 78.003906 12.097656 78.003906 12.097656 C 78.003906 12.097656 79.519531 11.765625 79.183594 10.761719 " fill-opacity="1" fill-rule="nonzero"/></g><g clip-path="url(#a1a14849b7)"><path fill="#ffffff" d="M 26.847656 3.488281 L 43.84375 0.410156 L 26.847656 3.488281 " fill-opacity="1" fill-rule="nonzero"/></g><g clip-path="url(#0152e17eb4)"><path fill="#62bfa9" d="M 78.003906 12.097656 C 78.003906 12.097656 79.234375 11.828125 79.230469 11.042969 C 79.230469 10.957031 79.214844 10.863281 79.183594 10.761719 L 43.84375 0.410156 L 26.847656 3.488281 L 78.003906 12.097656 " fill-opacity="1" fill-rule="nonzero"/></g><path fill="#f2f2f2" d="M 78.296875 12.097656 L 78.296875 24.121094 L 35.105469 32.136719 C 35.105469 32.136719 30.699219 27.292969 35.105469 19.113281 C 53.398438 15.605469 78.296875 12.097656 78.296875 12.097656 " fill-opacity="1" fill-rule="nonzero"/><path fill="#9edbc8" d="M 33.148438 32.136719 C 29.019531 24.949219 33.328125 18.828125 33.328125 18.828125 C 33.328125 18.828125 25.53125 16.105469 22.210938 15.199219 C 18.464844 22.363281 21.574219 27.796875 21.574219 27.796875 L 33.148438 32.136719 " fill-opacity="1" fill-rule="nonzero"/></g></g></g></svg>