<svg xmlns="http://www.w3.org/2000/svg" xmlns:xlink="http://www.w3.org/1999/xlink" width="600" zoomAndPan="magnify" viewBox="0 0 450 374.999991" height="500" preserveAspectRatio="xMidYMid meet" version="1.0"><defs><clipPath id="02a71d2746"><path d="M 138.054688 264 L 351 264 L 351 338 L 138.054688 338 Z M 138.054688 264 " clip-rule="nonzero"/></clipPath><clipPath id="89bc2c99ca"><path d="M 54.011719 292.203125 L 156.011719 292.203125 L 156.011719 374.703125 L 54.011719 374.703125 Z M 54.011719 292.203125 " clip-rule="nonzero"/></clipPath><clipPath id="18c92ed48d"><path d="M 1.558594 39.242188 L 102.011719 39.242188 L 102.011719 82.664062 L 1.558594 82.664062 Z M 1.558594 39.242188 " clip-rule="nonzero"/></clipPath><clipPath id="268ae5bde0"><path d="M 0.222656 20.265625 L 100.96875 20.265625 L 100.96875 63.640625 L 0.222656 63.640625 Z M 0.222656 20.265625 " clip-rule="nonzero"/></clipPath><clipPath id="a132824b06"><path d="M 0.222656 0.246094 L 100.96875 0.246094 L 100.96875 43.621094 L 0.222656 43.621094 Z M 0.222656 0.246094 " clip-rule="nonzero"/></clipPath><clipPath id="2e695237c4"><path d="M 33 0.203125 L 56 0.203125 L 56 5 L 33 5 Z M 33 0.203125 " clip-rule="nonzero"/></clipPath><clipPath id="02602d2248"><path d="M 33 0.203125 L 101 0.203125 L 101 16 L 33 16 Z M 33 0.203125 " clip-rule="nonzero"/></clipPath><clipPath id="d3abcf0255"><rect x="0" width="103" y="0" height="83"/></clipPath></defs><path fill="#d35b38" d="M 199.394531 111.433594 C 199.394531 111.433594 181.953125 85.292969 193.300781 50.792969 C 204.648438 16.292969 240.582031 0.132812 276.546875 12.484375 C 312.507812 24.835938 318.316406 88.304688 304.332031 106.660156 C 303.445312 108.136719 314.457031 125.753906 315.707031 156.1875 C 316.957031 186.625 286.261719 163.867188 286.261719 163.867188 C 286.261719 163.867188 278.324219 142.898438 296.925781 111.902344 C 296.925781 111.902344 293.140625 112.136719 284.609375 109.871094 C 276.078125 107.601562 219.980469 110.0625 219.980469 110.0625 C 219.980469 110.0625 214.207031 116.363281 210.667969 116.964844 C 207.128906 117.570312 210.667969 120.6875 210.667969 120.6875 C 210.667969 120.6875 215.675781 132.050781 216.824219 139.3125 C 217.972656 146.570312 190.472656 162.703125 190.472656 162.703125 C 190.472656 162.703125 183.300781 127.007812 199.394531 111.433594 Z M 199.394531 111.433594 " fill-opacity="1" fill-rule="nonzero"/><path fill="#2b3244" d="M 324.855469 211.855469 C 320.410156 217.796875 311.777344 217.902344 304.375 218.265625 C 280.871094 219.429688 258.644531 228.710938 235.867188 234.617188 C 230.570312 235.984375 224.945312 237.171875 219.695312 235.636719 C 215.390625 234.375 211.8125 231.410156 208.5 228.371094 C 194.585938 215.59375 183.011719 200.5625 174.710938 183.570312 C 174.710938 183.570312 184.632812 138.59375 230.878906 129 C 277.128906 119.402344 275.398438 131.582031 275.398438 131.582031 C 275.398438 131.582031 320.917969 141.839844 328.195312 183.570312 C 322.203125 191.492188 330.8125 203.910156 324.855469 211.855469 Z M 324.855469 211.855469 " fill-opacity="1" fill-rule="nonzero"/><path fill="#fff6e1" d="M 160.890625 182.398438 C 161.414062 181.804688 173.441406 177.742188 174.71875 177.5 C 175.996094 177.257812 228.851562 177.371094 247.261719 192.152344 C 247.261719 192.152344 266.367188 176.554688 316.820312 176.425781 C 317.558594 176.441406 335.90625 184.894531 336.371094 185.667969 C 336.371094 185.667969 290.957031 237.832031 238.605469 225.75 C 186.25 213.667969 160.890625 182.398438 160.890625 182.398438 Z M 154.152344 350.191406 C 163.707031 374.867188 198.082031 357.820312 205.621094 352.507812 C 212.875 348.335938 214.285156 348.34375 232.199219 346.960938 C 226.78125 335.339844 223.398438 318.894531 221.769531 309.441406 C 212.660156 314.257812 204.917969 317.097656 197.882812 317.425781 C 183.359375 318.105469 144.976562 326.496094 154.152344 350.191406 Z M 154.152344 350.191406 " fill-opacity="1" fill-rule="nonzero"/><path fill="#f2c1b8" d="M 236.597656 205.214844 C 236.539062 204.492188 245.964844 193.132812 246.738281 193.464844 C 247.511719 193.800781 258.347656 205.863281 258.304688 206.570312 C 258.261719 207.289062 236.800781 207.828125 236.597656 205.214844 Z M 236.597656 205.214844 " fill-opacity="1" fill-rule="nonzero"/><path fill="#d35b38" d="M 235.328125 204.492188 L 258.644531 205.265625 C 258.644531 205.265625 336.210938 183.59375 336.371094 185.675781 C 336.535156 187.753906 324.941406 260.742188 322.464844 262.410156 C 252.589844 345.746094 171.023438 263.484375 171.023438 263.484375 C 171.023438 263.484375 156.421875 183.351562 156.855469 182.160156 C 157.839844 179.417969 235.328125 204.492188 235.328125 204.492188 Z M 235.328125 204.492188 " fill-opacity="1" fill-rule="nonzero"/><g clip-path="url(#02a71d2746)"><path fill="#dc7b78" d="M 276.660156 276.800781 C 307.855469 262.4375 351.789062 253.160156 350.898438 296.222656 C 350.59375 310.875 330.324219 327.835938 294.089844 337.875 C 286.011719 328.851562 268.652344 301.34375 276.660156 276.800781 Z M 213.15625 276.800781 C 181.96875 262.4375 138.035156 253.160156 138.921875 296.222656 C 139.226562 310.875 159.492188 327.835938 195.726562 337.875 C 203.804688 328.851562 221.171875 301.34375 213.15625 276.800781 Z M 213.15625 276.800781 " fill-opacity="1" fill-rule="nonzero"/></g><path fill="#f2c1b8" d="M 234.839844 139.476562 C 231.207031 136.484375 273.296875 124.75 273.296875 124.75 L 275.398438 131.582031 C 275.398438 131.582031 254.445312 150.890625 250.3125 150.238281 C 247.816406 149.847656 240.363281 144.027344 234.839844 139.476562 Z M 259.859375 344.496094 C 272.476562 342.972656 283.914062 340.703125 294.097656 337.882812 C 290.332031 326.699219 279.027344 292.378906 276.660156 276.800781 C 268.722656 280.453125 261.609375 284.4375 256.269531 287.972656 C 252.285156 290.609375 248.511719 293.101562 244.910156 295.441406 C 241.304688 293.097656 237.53125 290.609375 233.546875 287.972656 C 228.207031 284.4375 221.09375 280.460938 213.15625 276.800781 C 210.789062 292.378906 199.484375 326.699219 195.71875 337.882812 C 205.902344 340.703125 217.347656 342.972656 229.957031 344.496094 C 230.675781 345.359375 231.414062 346.191406 232.1875 346.964844 C 235.722656 346.695312 239.910156 346.371094 244.902344 345.945312 C 249.894531 346.371094 254.085938 346.695312 257.617188 346.964844 C 258.40625 346.183594 259.140625 345.355469 259.859375 344.496094 Z M 259.859375 344.496094 " fill-opacity="1" fill-rule="nonzero"/><path fill="#fff6e1" d="M 335.671875 350.191406 C 326.117188 374.867188 291.742188 357.820312 284.203125 352.507812 C 276.949219 348.335938 275.539062 348.34375 257.625 346.960938 C 263.042969 335.339844 266.425781 318.894531 268.054688 309.441406 C 277.164062 314.257812 284.90625 317.097656 291.941406 317.425781 C 306.464844 318.105469 344.847656 326.496094 335.671875 350.191406 Z M 335.671875 350.191406 " fill-opacity="1" fill-rule="nonzero"/><path fill="#dc7b78" d="M 273.296875 124.75 C 267.296875 130.019531 249.179688 139.992188 234.839844 139.476562 C 231.207031 136.484375 228.414062 134.035156 228.414062 134.035156 C 228.414062 134.035156 231.214844 122.164062 231.40625 121.789062 L 271.253906 119.566406 C 271.433594 119.644531 271.601562 119.714844 271.773438 119.792969 Z M 273.296875 124.75 " fill-opacity="1" fill-rule="nonzero"/><path fill="#f2c1b8" d="M 250.53125 129 C 216.074219 129 205.085938 91.082031 205.085938 91.082031 C 190.640625 92.148438 187.222656 72.164062 201.136719 71.292969 C 201.136719 71.292969 202.160156 71.917969 203.632812 71.875 C 203.648438 71.875 203.449219 71.226562 203.46875 71.226562 C 205.511719 71.171875 208.796875 71.085938 212.945312 70.980469 C 213.582031 67.953125 216.769531 53.035156 217.71875 52.894531 C 218.667969 52.753906 215.554688 67.777344 214.886719 70.9375 C 221.414062 70.773438 229.710938 70.582031 238.539062 70.402344 C 238.644531 63.898438 240.257812 45.101562 240.964844 45.074219 C 241.6875 45.046875 240.921875 64.296875 240.660156 70.363281 C 248.355469 70.207031 256.375 70.070312 263.929688 69.972656 C 263.671875 65.550781 262.824219 50.167969 263.121094 49.984375 C 263.433594 49.789062 265.738281 66.433594 266.21875 69.941406 C 271.261719 69.886719 276.054688 69.851562 280.347656 69.84375 C 279.234375 62.773438 276.433594 44.449219 277.355469 44.09375 C 278.289062 43.722656 280.964844 63.050781 281.871094 69.84375 C 288.90625 69.84375 294.4375 69.941406 297.273438 70.175781 C 297.082031 70.964844 298.238281 70.269531 298.574219 70.320312 C 307.855469 71.804688 309.351562 90.355469 294.140625 90.1875 C 293.890625 95.414062 283.164062 129 250.53125 129 Z M 294.566406 181.945312 C 267.175781 185.296875 250.3125 196.363281 250.3125 196.363281 C 250.269531 197.535156 252.140625 195.859375 260.519531 192.160156 C 268.894531 188.457031 284.558594 183.820312 295 183.03125 C 296.382812 182.734375 295.777344 181.796875 294.566406 181.945312 Z M 314.21875 183.585938 C 291.90625 186.300781 274.21875 192.898438 274.21875 192.898438 C 273.242188 193.507812 274.359375 193.621094 275.402344 193.269531 C 276.445312 192.914062 297.304688 186.191406 314.707031 184.140625 C 315.59375 183.898438 314.800781 183.515625 314.21875 183.585938 Z M 194.066406 181.085938 C 189.003906 180.269531 170.222656 178.898438 170.222656 178.898438 L 168.605469 179.445312 C 168.597656 179.453125 196.464844 182.082031 194.066406 181.085938 Z M 223.640625 190.589844 C 231.6875 192.402344 242.234375 199.050781 242.234375 199.050781 L 242.851562 198.046875 C 238.277344 194.027344 225.921875 189.703125 224.371094 189.660156 C 222.808594 189.617188 222.640625 190.355469 223.640625 190.589844 Z M 219.382812 192.957031 C 210.761719 189.320312 190.003906 186.257812 188.875 186.257812 C 187.746094 186.257812 187.648438 186.613281 188.230469 186.769531 C 188.230469 186.769531 206.3125 189.355469 218.980469 193.460938 C 219.691406 193.6875 220.121094 193.308594 219.382812 192.957031 Z M 172.335938 245.179688 C 172.335938 245.179688 174.761719 244.660156 174.519531 242.734375 C 174.289062 240.808594 171.464844 239.53125 171.464844 239.53125 C 171.464844 239.53125 174.429688 239.15625 174.480469 237.160156 C 174.527344 235.164062 171.796875 233.179688 171.796875 233.179688 C 173.472656 232.699219 174.5625 231.261719 172.875 229.359375 C 171.1875 227.457031 163.097656 224.535156 159.535156 225.464844 C 155.976562 226.398438 156.707031 230.644531 159.742188 231.675781 C 156.464844 232.703125 157.882812 236.449219 160.871094 237.804688 C 158.21875 238.542969 159.4375 242.351562 163.378906 243.820312 C 159.875 245.050781 161.917969 249.367188 168.367188 250.25 C 171.308594 250.703125 174.839844 249.601562 174.71875 248.140625 C 174.59375 246.664062 172.335938 245.179688 172.335938 245.179688 Z M 336.152344 231.660156 C 339.1875 230.628906 339.910156 226.382812 336.359375 225.453125 C 332.796875 224.523438 324.714844 227.441406 323.019531 229.34375 C 321.324219 231.25 322.421875 232.683594 324.097656 233.167969 C 324.097656 233.167969 321.367188 235.15625 321.414062 237.144531 C 321.464844 239.140625 324.429688 239.515625 324.429688 239.515625 C 324.429688 239.515625 321.605469 240.800781 321.375 242.71875 C 321.140625 244.644531 323.558594 245.164062 323.558594 245.164062 C 323.558594 245.164062 321.300781 246.648438 321.183594 248.113281 C 321.0625 249.574219 324.59375 250.675781 327.535156 250.222656 C 333.984375 249.339844 336.023438 245.023438 332.523438 243.792969 C 336.464844 242.324219 337.683594 238.515625 335.03125 237.777344 C 338.003906 236.433594 339.429688 232.691406 336.152344 231.660156 Z M 157.109375 334.246094 C 155.953125 333.839844 155.527344 334.871094 156.492188 335.238281 C 156.875 335.386719 173.046875 342.335938 164.671875 359.511719 C 163.941406 361.074219 165.8125 360.894531 167.265625 356.257812 C 168.71875 351.617188 170.445312 340.359375 157.109375 334.246094 Z M 273.582031 317.53125 C 273.808594 316.246094 273.941406 315.285156 273.992188 314.796875 C 274.226562 312.496094 272.808594 312.273438 272.707031 313.710938 C 271.757812 327.121094 263.410156 346.398438 263.410156 346.398438 C 263.128906 347.265625 264.226562 347.578125 266.859375 341.523438 C 268.46875 342.109375 279.191406 345.746094 280.28125 345.320312 C 281.316406 344.914062 270.019531 341.242188 267.339844 340.382812 C 267.574219 339.820312 267.808594 339.222656 268.0625 338.570312 C 268.636719 337.070312 269.183594 335.480469 269.6875 333.859375 C 271.886719 334.523438 282.191406 337.589844 282.175781 337.171875 C 282.164062 336.773438 272.636719 333.78125 269.964844 332.957031 C 271.453125 327.992188 272.589844 322.867188 273.269531 319.265625 C 275.445312 319.554688 285.742188 322.695312 285.585938 322.097656 C 285.425781 321.5 275.460938 318.15625 273.582031 317.53125 Z M 273.792969 324.703125 C 273.773438 325.75 285.585938 328.3125 285.585938 327.851562 C 285.585938 327.390625 273.808594 323.652344 273.792969 324.703125 Z M 332.535156 334.976562 C 319.5 338.492188 321.480469 356.285156 326.757812 359.582031 C 327.875 360.113281 326.378906 358.503906 325.75 357.4375 C 325.117188 356.371094 321.714844 346.425781 326.628906 340.195312 C 330.101562 335.871094 332.410156 335.828125 333.367188 335.621094 C 334.324219 335.417969 333.96875 334.507812 332.535156 334.976562 Z M 332.535156 334.976562 " fill-opacity="1" fill-rule="nonzero"/><path fill="#fff6e1" d="M 298.566406 70.320312 L 297.269531 70.175781 L 281.113281 79.347656 C 279.480469 75.226562 275.941406 71.964844 270.246094 71.570312 C 261.121094 70.9375 255.894531 76.917969 255.023438 83.359375 C 252.566406 83.046875 247.050781 82.65625 241.328125 84.410156 C 240.929688 77.585938 236.300781 70.894531 226.675781 71.5625 C 220.953125 71.960938 217.40625 75.25 215.789062 79.398438 L 203.429688 71.214844 L 201.128906 71.300781 L 215.335938 80.761719 C 214.613281 83.347656 214.570312 86.152344 215.164062 88.757812 C 216.859375 96.160156 223.121094 98.875 229.214844 98.574219 C 240.09375 97.304688 241.320312 88.792969 241.355469 85.421875 C 242.980469 85.101562 249.296875 83.984375 254.894531 84.988281 C 254.871094 88.003906 256.332031 97.246094 267.703125 98.574219 C 273.792969 98.875 280.054688 96.160156 281.75 88.757812 C 282.296875 86.363281 282.304688 83.800781 281.742188 81.394531 C 281.703125 81.179688 298.566406 70.320312 298.566406 70.320312 Z M 225.695312 97.304688 C 212.859375 94.71875 214.179688 79.984375 219.796875 75.53125 C 225.414062 71.078125 235.46875 71.128906 239.789062 80.988281 C 242.640625 87.933594 237.765625 98.878906 225.695312 97.304688 Z M 271.539062 97.234375 C 259.476562 98.808594 254.292969 87.925781 257.140625 80.988281 C 261.460938 71.128906 271.050781 71.15625 276.667969 75.605469 C 282.277344 80.058594 284.375 94.65625 271.539062 97.234375 Z M 318.757812 206.386719 C 318.992188 206.664062 317.4375 230.660156 317.4375 230.660156 C 317.4375 230.660156 273.054688 241.378906 271.976562 242.734375 C 271.285156 243.613281 272.234375 218.242188 273.054688 217.886719 C 276.050781 216.609375 317.140625 204.449219 318.757812 206.386719 Z M 318.757812 206.386719 " fill-opacity="1" fill-rule="nonzero"/><path fill="#2b3244" d="M 305.566406 148.601562 C 305.566406 148.601562 303.117188 128.921875 303.332031 127.664062 C 303.539062 126.398438 308.011719 147.730469 305.566406 148.601562 Z M 206.535156 125.679688 C 207.414062 123.585938 205.726562 122.050781 205.085938 125.679688 C 204.9375 126.503906 203.738281 136 206.535156 143.609375 C 208.109375 145.449219 203.9375 133.421875 206.535156 125.679688 Z M 261.304688 86.074219 C 260.53125 85.753906 260.757812 87.289062 263.132812 88 C 263.148438 89.695312 263.355469 94.242188 266.09375 94.605469 C 268.984375 94.988281 269.425781 89.441406 269.488281 87.878906 C 271.558594 87.273438 272.175781 86.273438 271.757812 86.074219 C 266.246094 89.140625 261.304688 86.074219 261.304688 86.074219 Z M 261.914062 75.996094 C 261.53125 76.691406 262.15625 77.875 262.921875 77.863281 C 263.59375 77.847656 270.355469 74.3125 275 77.167969 C 275.625 77.507812 276.097656 77.003906 275.59375 76.476562 C 271.035156 72.316406 263.097656 74.410156 261.914062 75.996094 Z M 235.625 86.074219 C 235.625 86.074219 230.683594 89.148438 225.171875 86.074219 C 224.753906 86.273438 225.378906 87.273438 227.441406 87.878906 C 227.503906 89.441406 227.945312 94.988281 230.839844 94.605469 C 233.574219 94.242188 233.78125 89.703125 233.796875 88 C 236.171875 87.289062 236.398438 85.753906 235.625 86.074219 Z M 234.007812 77.871094 C 234.773438 77.882812 235.398438 76.699219 235.015625 76 C 233.832031 74.410156 225.894531 72.320312 221.335938 76.484375 C 220.832031 77.011719 221.3125 77.515625 221.929688 77.171875 C 226.574219 74.316406 233.335938 77.855469 234.007812 77.871094 Z M 197.519531 77.871094 C 198.585938 78.203125 202.378906 78.203125 203.414062 85.738281 C 203.621094 86.839844 204.746094 86.65625 204.769531 85.066406 C 204.78125 83.472656 203.25 78.28125 198.398438 76.816406 C 197.117188 76.476562 195.675781 76.789062 197.519531 77.871094 Z M 297.628906 83.929688 C 297.757812 83.203125 298.035156 78.964844 301.800781 79.539062 C 303.167969 79.496094 302.757812 78.03125 301.386719 77.871094 C 296.65625 77.890625 296.246094 83.886719 296.246094 83.929688 C 296.316406 85.738281 297.503906 84.652344 297.628906 83.929688 Z M 245.066406 98.242188 C 245.066406 98.242188 248.816406 93.894531 254.425781 97.636719 C 255 97.636719 255.253906 97.21875 254.90625 96.707031 C 254.519531 96.140625 248.488281 92.855469 244.417969 97.460938 C 243.773438 98.640625 244.753906 98.554688 245.066406 98.242188 Z M 257.746094 111.433594 C 248.859375 116.746094 242.285156 111.105469 242.519531 111.070312 C 241.800781 110.445312 241.496094 111.3125 242.511719 112.257812 C 243.527344 113.199219 249.460938 117.929688 258.128906 112.128906 C 258.675781 111.617188 258.277344 111.125 257.746094 111.433594 Z M 199.394531 111.433594 C 198.804688 112.773438 199.03125 114.195312 199.769531 115.523438 C 197.144531 120.105469 195.101562 130.0625 196.03125 130.097656 C 197.015625 130.132812 197.746094 124.609375 200.804688 116.988281 C 203.328125 119.898438 208.015625 121.996094 210.882812 121.164062 C 210.882812 121.164062 215.007812 119.855469 214.761719 114.828125 C 206.085938 117.398438 199.394531 111.433594 199.394531 111.433594 Z M 304.332031 106.652344 C 299.539062 111.574219 292.121094 111.480469 292.121094 111.480469 C 291.898438 113.109375 292.929688 117.164062 298.203125 115.929688 C 297.542969 119.101562 295.515625 129.105469 295.957031 129.9375 C 296.402344 130.78125 299.226562 118.933594 300.070312 115.332031 C 306.609375 112.710938 304.332031 106.652344 304.332031 106.652344 Z M 235.328125 204.492188 C 235.328125 204.492188 238.460938 287.320312 239.582031 288.480469 C 240.703125 289.636719 237.453125 204.492188 237.453125 204.492188 Z M 254.851562 278.699219 C 255.980469 278.429688 258.644531 205.265625 258.644531 205.265625 L 257.207031 205.214844 C 257.207031 205.214844 253.722656 278.96875 254.851562 278.699219 Z M 172.484375 233.75 C 172.089844 233.386719 171.789062 233.171875 171.789062 233.171875 C 171.789062 233.171875 166.753906 234.125 159.734375 231.660156 C 159.566406 231.710938 159.421875 231.773438 159.273438 231.84375 C 163.847656 234.105469 169.96875 234.429688 172.484375 233.75 Z M 163.371094 243.808594 C 162.960938 243.949219 162.636719 244.140625 162.371094 244.359375 C 166.160156 245.398438 170.863281 245.652344 173.039062 245.710938 C 172.648438 245.382812 172.335938 245.179688 172.335938 245.179688 C 172.335938 245.179688 166.246094 244.84375 163.371094 243.808594 Z M 171.464844 239.523438 C 171.464844 239.523438 164.011719 238.769531 160.871094 237.789062 C 160.613281 237.863281 160.402344 237.96875 160.21875 238.097656 C 164.335938 239.722656 170.046875 240.070312 172.535156 240.140625 C 171.945312 239.75 171.464844 239.523438 171.464844 239.523438 Z M 336.605469 231.84375 C 336.464844 231.78125 336.316406 231.71875 336.144531 231.660156 C 329.125 234.117188 324.089844 233.171875 324.089844 233.171875 C 324.089844 233.171875 323.792969 233.394531 323.394531 233.75 C 325.699219 234.296875 331.96875 234.152344 336.605469 231.84375 Z M 323.550781 245.179688 C 323.550781 245.179688 323.246094 245.382812 322.847656 245.710938 C 325.019531 245.652344 329.726562 245.398438 333.515625 244.359375 C 333.253906 244.140625 332.925781 243.957031 332.515625 243.808594 C 329.636719 244.84375 323.550781 245.179688 323.550781 245.179688 Z M 324.421875 239.523438 C 324.421875 239.523438 323.941406 239.742188 323.351562 240.140625 C 325.839844 240.070312 331.550781 239.722656 335.671875 238.097656 C 335.484375 237.976562 335.273438 237.863281 335.019531 237.789062 C 331.875 238.769531 324.421875 239.523438 324.421875 239.523438 Z M 324.421875 239.523438 " fill-opacity="1" fill-rule="nonzero"/><g clip-path="url(#89bc2c99ca)"><g transform="matrix(1, 0, 0, 1, 54, 292)"><g clip-path="url(#d3abcf0255)"><g clip-path="url(#18c92ed48d)"><path fill="#5d85bd" d="M 101.925781 52.703125 L 56.921875 39.4375 L 5.273438 48.851562 C 5.273438 48.851562 -1.585938 56.554688 3.484375 66.292969 C 15.269531 70.785156 45.347656 82.664062 45.347656 82.664062 L 101.925781 71.75 C 101.925781 71.75 103.210938 70.464844 100.425781 69.824219 C 100.425781 66.078125 100.425781 54.414062 100.425781 54.414062 C 100.425781 54.414062 102.355469 53.988281 101.925781 52.703125 " fill-opacity="1" fill-rule="nonzero"/></g><path fill="#3f5983" d="M 43.300781 80.167969 C 38.046875 70.957031 43.535156 63.113281 43.535156 63.113281 C 43.535156 63.113281 34.949219 60.125 30.582031 58.472656 L 29.691406 58.300781 C 25.027344 67.410156 28.5625 74.394531 28.5625 74.394531 L 43.300781 80.167969 " fill-opacity="1" fill-rule="nonzero"/><path fill="#f2f2f2" d="M 100.796875 54.414062 L 100.796875 69.824219 L 45.792969 80.09375 C 45.792969 80.09375 40.183594 73.886719 45.792969 63.402344 C 69.089844 58.910156 100.796875 54.414062 100.796875 54.414062 " fill-opacity="1" fill-rule="nonzero"/><path fill="#dad9d7" d="M 45.792969 80.09375 L 100.796875 69.824219 L 100.796875 54.414062 C 100.796875 54.414062 84.8125 56.679688 67.207031 59.601562 C 61.3125 61.921875 57.09375 63.585938 57.09375 63.585938 L 51.027344 62.417969 C 49.25 62.746094 47.5 63.074219 45.792969 63.402344 C 43.921875 66.898438 43.300781 69.921875 43.300781 72.394531 C 43.300781 77.335938 45.792969 80.09375 45.792969 80.09375 " fill-opacity="1" fill-rule="nonzero"/><g clip-path="url(#268ae5bde0)"><path fill="#ecb348" d="M 0.515625 34.324219 L 45.519531 20.359375 L 97.167969 29.777344 C 97.167969 29.777344 104.027344 37.480469 98.957031 47.214844 C 87.171875 51.710938 57.09375 63.585938 57.09375 63.585938 L 0.515625 52.675781 C 0.515625 52.675781 -0.769531 51.386719 2.015625 50.746094 C 2.015625 47.003906 2.015625 35.847656 2.015625 35.847656 C 2.015625 35.847656 0.0859375 35.609375 0.515625 34.324219 " fill-opacity="1" fill-rule="nonzero"/></g><path fill="#f2f2f2" d="M 1.78125 50.746094 L 57.269531 61.773438 L 97.367188 46.121094 C 97.367188 46.121094 101.089844 39.226562 96.125 31.632812 C 88.210938 34.734375 56.570312 45.117188 56.570312 45.117188 L 1.78125 35.804688 L 1.78125 50.746094 " fill-opacity="1" fill-rule="nonzero"/><path fill="#dad9d7" d="M 57.269531 61.773438 L 97.367188 46.121094 C 97.367188 46.121094 98.707031 43.640625 98.707031 40.011719 C 98.707031 38.023438 98.304688 35.6875 97.050781 33.230469 L 85.316406 35.492188 C 73.160156 39.671875 56.570312 45.117188 56.570312 45.117188 L 57.269531 61.773438 " fill-opacity="1" fill-rule="nonzero"/><g clip-path="url(#a132824b06)"><path fill="#47ad96" d="M 100.527344 13.511719 L 55.523438 0.246094 L 3.875 9.660156 C 3.875 9.660156 -2.980469 17.363281 2.085938 27.101562 C 13.875 31.59375 43.953125 43.472656 43.953125 43.472656 L 100.527344 32.558594 C 100.527344 32.558594 101.8125 31.273438 99.027344 30.632812 C 99.027344 26.886719 99.027344 15.222656 99.027344 15.222656 C 99.027344 15.222656 100.957031 14.796875 100.527344 13.511719 " fill-opacity="1" fill-rule="nonzero"/></g><g clip-path="url(#2e695237c4)"><path fill="#ffffff" d="M 33.882812 4.191406 L 55.523438 0.246094 L 33.882812 4.191406 " fill-opacity="1" fill-rule="nonzero"/></g><g clip-path="url(#02602d2248)"><path fill="#62bfa9" d="M 99.027344 15.222656 C 99.027344 15.222656 100.59375 14.878906 100.589844 13.871094 C 100.589844 13.761719 100.570312 13.640625 100.527344 13.511719 L 55.523438 0.246094 L 33.882812 4.191406 L 99.027344 15.222656 " fill-opacity="1" fill-rule="nonzero"/></g><path fill="#f2f2f2" d="M 99.398438 15.222656 L 99.398438 30.632812 L 44.398438 40.902344 C 44.398438 40.902344 38.789062 34.699219 44.398438 24.210938 C 67.691406 19.71875 99.398438 15.222656 99.398438 15.222656 " fill-opacity="1" fill-rule="nonzero"/><path fill="#9edbc8" d="M 41.902344 40.902344 C 36.648438 31.691406 42.136719 23.847656 42.136719 23.847656 C 42.136719 23.847656 32.203125 20.359375 27.980469 19.199219 C 23.207031 28.378906 27.164062 35.339844 27.164062 35.339844 L 41.902344 40.902344 " fill-opacity="1" fill-rule="nonzero"/></g></g></g></svg>